<?xml version="1.0" encoding="UTF-8"?>
<svg id="Layer_2" data-name="Layer 2" xmlns="http://www.w3.org/2000/svg" viewBox="0 0 141.42 144.45">
  <defs>
    <style>
      .cls-1, .cls-2 {
        fill: #023e8a;
      }

      .cls-3, .cls-4, .cls-5 {
        fill: #0096c7;
      }

      .cls-4, .cls-2, .cls-6 {
        stroke-width: 2px;
      }

      .cls-4, .cls-2, .cls-6, .cls-5 {
        stroke-miterlimit: 10;
      }

      .cls-4, .cls-5 {
        stroke: #0096c7;
      }

      .cls-2, .cls-6 {
        stroke: #023e8a;
      }

      .cls-6 {
        fill: #0b318f;
      }
    </style>
  </defs>
  <g id="_2nd" data-name="2nd">
    <circle class="cls-2" cx="22.95" cy="104.33" r="3.84"/>
    <circle class="cls-2" cx="4.73" cy="38.23" r="3.73"/>
    <circle class="cls-4" cx="30.67" cy="64.69" r="3.84"/>
    <circle class="cls-4" cx="48.25" cy="42.07" r="3.84"/>
    <circle class="cls-6" cx="46.33" cy="4.73" r="3.73"/>
    <path class="cls-3" d="m48.85,76.18c-4.32.71-8.3,2.19-11.84,4.25.06,0,.17-.03.17-.03,0,0,28.83,9.77,31.45,25.69s-5.76,31.85-21.6,33.22c-.64.06,8.73,2.89,12.93-.55,12.99-10.66,23.24-17.64,22.94-27.79-.52-17.46-15.93-37.77-34.04-34.8Z"/>
    <path class="cls-1" d="m66.26,72.93c-7.19-.26-13.98,1.18-19.88,3.91,17.36,5.39,29.49,18.96,28.92,34.4-.45,12.31-11.41,23.48-23.78,29.33,3.08.8,8.88.66,12.24.79,21.68.79,38.87-7.43,39.56-26.33s-15.38-41.3-37.06-42.09Z"/>
    <path class="cls-1" d="m48.81,24.36c-7.74,0-15.15,1.42-21.98,3.99,1.64-.14,3.29-.23,4.97-.23,32.95,0,59.67,27.28,59.67,60.93,0,26.09-16.36,42.63-38.94,51.32,32.23-2.04,58.03-22.76,58.03-55.08,0-33.65-27.65-60.93-61.75-60.93Z"/>
    <path class="cls-5" d="m107.05,22.19c-13.24-6.89-27.9-8.73-41.76-6.25,2.93,1.02,5.82,2.25,8.64,3.72,31.65,16.46,43.17,55.43,25.73,87.03-10.15,18.38-27.86,30.21-47.13,33.66,29.93,10.39,64.36-2.35,80.25-31.13,17.44-31.61,5.93-70.57-25.73-87.03Z"/>
  </g>
</svg>